# xmcd
#
# Track frame offsets:
#	150
#	9295
#	23272
#	28272
#	39745
#	53582
#	65747
#	75000
#	82515
#	100587
#	109257
#	115597
#	120787
#	126017
#	136675
#	148492
#	155322
#	161112
#	181595
#	208405
#
# Disc length: 3361 seconds
#
# Revision: 1
# Processed by: cddbd v1.5.1PL0 Copyright (c) Steve Scherf et al.
# Submitted via: CDex 1.50Beta5
#
DISCID=eb0d1f14
DTITLE=gauze - gauze
DYEAR=1900
DGENRE=
TTITLE0=power
TTITLE1=fuck heads
TTITLE2=one last kiss
TTITLE3=core tick
TTITLE4=shot
TTITLE5=love song
TTITLE6=ghostlike crime
TTITLE7=ノイローゼ
TTITLE8=酔狂
TTITLE9=go
TTITLE10=pressing on
TTITLE11=crash the pose
TTITLE12=thrash thrash thrash
TTITLE13=勝手にさらせ
TTITLE14=fact and criminal
TTITLE15=パッパッパ
TTITLE16=low charge
TTITLE17=absinth trip
TTITLE18=distort japan
TTITLE19=言いなり
EXTD=
EXTT0=
EXTT1=
EXTT2=
EXTT3=
EXTT4=
EXTT5=
EXTT6=
EXTT7=
EXTT8=
EXTT9=
EXTT10=
EXTT11=
EXTT12=
EXTT13=
EXTT14=
EXTT15=
EXTT16=
EXTT17=
EXTT18=
EXTT19=
PLAYORDER=
